<svg xmlns="http://www.w3.org/2000/svg" xmlns:svg="http://www.w3.org/2000/svg" id="svg5" width="80" height="40" version="1.1" viewBox="0 0 80 40"><metadata id="metadata11"/><title id="title">Voluntarily Logo</title><g id="Transparent-V" fillRule="evenodd" strokeWidth="1" transform="matrix(0.4625539,0,0,0.4625539,32.898442,12.954188)" style="fill:none;stroke:none"><path id="V" d="M 31.696209,0.72307122 C 32.027618,1.174993 32.087873,1.6720995 31.876977,2.2144056 L 19.494382,32.809357 c -0.150641,0.331409 -0.354002,0.579962 -0.610092,0.745667 -0.256089,0.165705 -0.549833,0.248556 -0.881243,0.248556 h -3.976891 c -0.753203,0 -1.25031,-0.331405 -1.491335,-0.994223 L 0.15222654,2.2144056 C -0.08879841,1.7022276 -0.04360691,1.2051211 0.2878024,0.72307122 0.6192117,0.24102133 1.0560629,0 1.598369,0 h 15.094112 c 0.421793,0 0.790857,0.15817025 1.107203,0.47451549 0.316345,0.31634524 0.474515,0.70047301 0.474515,1.15239481 v 3.2990124 c 0,0.4519218 -0.15817,0.8360495 -0.474515,1.1523948 -0.316346,0.3163452 -0.68541,0.4745155 -1.107203,0.4745155 H 9.100233 L 16.014602,23.951734 25.098184,0.99422294 C 25.339209,0.33140433 25.836315,0 26.589518,0 h 3.796124 c 0.572434,0 1.009286,0.24102133 1.310567,0.72307122 z" fillRule="nonzero" style="fill:#000"/></g><ellipse style="fill:none;stroke:#000068;stroke-width:1.14340186;stroke-opacity:1" id="path830" cx="40.359" cy="19.416" rx="11.164" ry="11.104"/><path style="fill:none;fill-rule:evenodd;stroke:#000;stroke-width:1px;stroke-linecap:butt;stroke-linejoin:miter;stroke-opacity:1" id="path832" d="M 32.239275,12.195124 48.239064,27.535745"/></svg>